<svg xmlns="http://www.w3.org/2000/svg" viewBox="0 0 1200 230" width="1200" height="230" role="img" aria-label="Shaan Satsangi — Data & AI Engineer · Full-Stack Generalist">
  <defs>
    <linearGradient id="bg" x1="0" y1="0" x2="1200" y2="230" gradientUnits="userSpaceOnUse">
      <stop offset="0" stop-color="#0f0c29"/>
      <stop offset="0.5" stop-color="#302b63"/>
      <stop offset="1" stop-color="#24243e"/>
    </linearGradient>
    <linearGradient id="accent" x1="0" y1="0" x2="1" y2="0">
      <stop offset="0" stop-color="#A78BFA" stop-opacity="0"/>
      <stop offset="0.5" stop-color="#A78BFA"/>
      <stop offset="1" stop-color="#A78BFA" stop-opacity="0"/>
    </linearGradient>
  </defs>

  <rect width="1200" height="230" fill="url(#bg)"/>

  <g fill="#ffffff">
    <circle cx="120" cy="50" r="1.6" opacity="0.5"/>
    <circle cx="260" cy="36" r="1.1" opacity="0.35"/>
    <circle cx="400" cy="64" r="1.3" opacity="0.4"/>
    <circle cx="700" cy="52" r="1.0" opacity="0.3"/>
    <circle cx="820" cy="30" r="1.2" opacity="0.4"/>
    <circle cx="950" cy="44" r="1.5" opacity="0.5"/>
    <circle cx="1080" cy="70" r="1.1" opacity="0.35"/>
    <circle cx="1140" cy="40" r="1.3" opacity="0.45"/>
    <circle cx="60" cy="92" r="1.0" opacity="0.3"/>
  </g>

  <g>
    <path d="M-80 176 C 100 150 280 200 470 178 C 670 154 820 200 1010 176 C 1120 164 1200 180 1280 172 L 1280 230 L -80 230 Z" fill="#A78BFA" opacity="0.10">
      <animateTransform attributeName="transform" type="translate" values="0 0; -40 0; 0 0" dur="9s" repeatCount="indefinite"/>
    </path>
    <path d="M-80 196 C 130 176 300 214 520 196 C 720 178 880 214 1070 194 C 1170 186 1230 198 1280 192 L 1280 230 L -80 230 Z" fill="#7c5cff" opacity="0.16">
      <animateTransform attributeName="transform" type="translate" values="0 0; 40 0; 0 0" dur="11s" repeatCount="indefinite"/>
    </path>
  </g>

  <text x="600" y="106" text-anchor="middle" font-family="'Segoe UI','Helvetica Neue',Helvetica,Arial,sans-serif" font-size="60" font-weight="800" fill="#ffffff" letter-spacing="1">Shaan Satsangi</text>
  <text x="600" y="148" text-anchor="middle" font-family="'Segoe UI','Helvetica Neue',Helvetica,Arial,sans-serif" font-size="21" font-weight="600" fill="#c4b5fd" letter-spacing="2.5">Data &amp; AI Engineer &#183; Full-Stack Generalist</text>
  <rect x="470" y="164" width="260" height="3" rx="1.5" fill="url(#accent)"/>
</svg>
